<mxfile host="app.diagrams.net" modified="2020-06-03T06:13:30.119Z" agent="5.0 (Windows NT 10.0; Win64; x64) AppleWebKit/537.36 (KHTML, like Gecko) Chrome/83.0.4103.61 Safari/537.36 Edg/83.0.478.37" etag="6D1BiGj60GrvSsnsNnwW" version="13.1.13" type="github">
  <diagram id="YpFW2FITaJU02STHhrmW" name="第 1 页">
    <mxGraphModel dx="976" dy="620" grid="1" gridSize="10" guides="1" tooltips="1" connect="1" arrows="1" fold="1" page="1" pageScale="1" pageWidth="827" pageHeight="1169" math="0" shadow="0">
      <root>
        <mxCell id="0" />
        <mxCell id="1" parent="0" />
        <mxCell id="SW5ajO-Hi61FZO8TLior-1" value="python入门" style="rounded=0;whiteSpace=wrap;html=1;" vertex="1" parent="1">
          <mxGeometry x="290" y="90" width="120" height="60" as="geometry" />
        </mxCell>
      </root>
    </mxGraphModel>
  </diagram>
</mxfile>
